<svg width="580" height="400" xmlns="http://www.w3.org/2000/svg">
 <!-- Created with Method Draw - http://github.com/duopixel/Method-Draw/ -->

 <g>
  <title>background</title>
  <rect fill="#fff" id="canvas_background" height="402" width="582" y="-1" x="-1"/>
  <g display="none" overflow="visible" y="0" x="0" height="100%" width="100%" id="canvasGrid">
   <rect fill="url(#gridpattern)" stroke-width="0" y="0" x="0" height="100%" width="100%"/>
  </g>
 </g>
 <g>
  <title>Layer 1</title>
  <rect stroke-width="0" rx="29" id="svg_4" height="100" width="177" y="134.949997" x="202.5" stroke="#000" fill="#5B9BA2"/>
  <path opacity="0.75" id="svg_1" d="m313.79248,179.754379c0,0 9.967255,1.897247 12.332977,8.456009c0,0 2.122467,2.546585 1.500275,3.902893c-0.622559,1.354248 -1.624969,1.788025 -1.874176,1.950989c0,0 1.251617,-1.247147 -2.987915,-3.252762c0,0 -2.179138,-0.324402 -2.614838,-0.650085c-0.435699,-0.325806 -6.85437,-1.408936 -8.223999,1.300613c-1.369629,2.710495 -1.680908,7.26355 -1.494141,7.479919c0.186768,0.216385 6.536865,4.335815 7.096985,5.528214c0.560577,1.192352 3.55481,3.63176 4.862274,3.577118c1.307556,-0.053513 4.426483,-0.053513 5.235809,-0.976105c0.809326,-0.921341 3.175049,-1.029434 3.735077,0c0.560394,1.030746 0.373718,0.976105 0.373718,0.976105c0,0 1.992096,-0.379333 2.620789,0.976028c0.622742,1.354202 -0.93988,1.95079 -1.126556,1.95079c-0.186859,0 1.188812,-2.059021 -0.74707,-1.62616c0,0 -1.12088,0.040604 -1.12088,-0.324631c0,-0.36528 0.653687,1.91011 0,1.95079c0,0 -2.197449,-2.113678 -2.614563,-0.975937c0,0 -1.400757,0.244141 -1.867584,0.325699c-0.467194,0.080429 -0.373627,0.325684 -0.373627,0.325684c0,0 -1.21994,0.405975 -0.379578,1.625214c0,0 0,0.447845 -0.373901,0.65033c-0.373352,0.203613 0.236755,1.178436 1.874176,0.32547c0,0 0.417023,-0.32547 0.373535,0c-0.049896,0.324646 -1.681,2.07312 -3.741852,-0.32547c0,0 -0.74707,-1.828796 0.373718,-2.275543c1.120422,-0.44783 -0.373718,-1.3423 -1.867493,-0.651382c0,0 -0.09375,1.300598 0.373169,1.626266c0.467194,0.324585 -0.790558,0.040802 -1.120422,-0.325668c-0.329865,-0.365341 -0.746887,0.772415 -0.746887,0.975998c0,0.203552 -0.423523,0.894531 -0.74707,0.65033c-0.330048,-0.243073 -3.411804,-0.528305 -3.368225,-0.324585c0.049988,0.202347 -1.444061,1.056244 -1.867767,0.650055c-0.41684,-0.406799 -2.75766,-2.479874 -2.988098,-2.276459c-0.236938,0.202606 1.587433,2.480255 2.614929,2.92691c1.026764,0.446899 5.328918,0.731781 6.729401,-0.325806c0,0 2.148102,-0.366333 2.241394,0c0,0 2.434204,0.854065 2.241394,1.30072c-0.186951,0.447754 -0.186951,0.204651 -0.373901,0c-0.186584,-0.202225 -1.724396,-0.934265 -1.867493,-0.64917c-0.136871,0.284042 0,0.324707 0,0.324707c0,0 1.960876,0.487228 1.867493,0.650177c0,0 2.291199,0.812103 1.874176,2.601227c0,0 -0.7034,0.447845 -0.74707,0c-0.049805,-0.446777 0.280151,-1.665741 -1.127106,-1.625183c0,0 -0.230164,0.649155 -1.120422,0.324524c-0.883942,-0.324524 0.516724,-1.015518 -4.108704,-0.650162c0,0 0.186584,0.772263 0.74707,0.974792c0.560028,0.204575 1.494141,0.204575 1.494141,0.976028c0,0 0.609924,0.650269 0,1.301758c0,0 -0.373718,0.202515 -0.373718,0c0,-0.203522 0.373718,-1.178589 -1.493958,-1.626282c-1.867859,-0.44693 -1.494232,-0.325745 -1.494232,-0.325745c0,0 0.323822,1.952026 -0.373627,1.952026c-0.703583,0 0.466827,1.219147 1.867859,0.650253c0,0 0.13678,-0.488632 0.373535,-0.325745c0.230072,0.162842 -1.170502,2.520935 -3.741852,-0.324509c0,0 -0.840546,-1.505249 0,-1.952026c0,0 0.560577,-1.504211 -2.241211,-0.974915c0,0 -1.16391,0.162949 -1.120239,0c0.049622,-0.16394 -0.187042,0.77243 0,0.974915c0.186218,0.203491 -2.197906,-0.446671 -2.241394,-0.650391l-0.747437,0c0,0 0.436157,1.897369 0.747437,1.950928c0.311279,0.054688 -1.432159,-0.921326 -1.873901,-1.626297c0,0 0,1.356445 0.379761,1.626297c0.373535,0.271057 -1.687042,-1.462341 -1.500275,-1.626297c0,0 0.062256,1.734573 0.746887,2.602295c0.691132,0.866776 -1.493866,-0.813126 -1.867584,-1.300583c0,0 -0.373444,0.21637 0,0.650314c0.373718,0.434006 -1.244934,-0.433945 -1.494049,-1.626266c0,0 -1.058533,-0.758514 -1.494232,-0.974915c0,0 0.062256,1.842575 0.373444,1.950867c0,0 -0.871399,-0.596741 -1.120422,-1.301712c0,0 -0.49823,0.651505 -0.373627,0.976028c0,0 -1.431976,-1.408783 -1.873901,-2.601227c-0.435699,-1.192322 -0.373535,0.325775 -0.373535,0.325775c0,0 -0.87149,-0.109406 -1.493958,-2.276855c0,0 -3.611023,3.306274 -4.855957,3.576279c-1.251282,0.272156 1.494476,-1.299423 1.494476,-1.299423c0,0 -2.054718,0.542084 -2.241547,0.974792c0,0 0.186829,-0.59668 1.120514,-1.300568c0.933746,-0.704758 -1.120514,-0.325714 -1.120514,-0.325714c0,0 -0.4422,-0.108154 -0.373718,-3.577164c0,0 -2.807648,2.602249 -4.488556,2.602249c-1.680573,0 1.556732,-1.084122 1.86792,-1.951996c0.311035,-0.866623 -0.684906,-0.595612 -1.120697,-0.324585c-0.435791,0.271118 -3.672913,1.897461 -3.735413,2.276581c-0.062347,0.379272 -0.373474,-0.650452 -0.373474,-0.650452c0,0 -0.753204,0.324646 -1.500275,0.324646c-0.74707,0 2.184937,-1.191162 2.620728,-1.950775c0.435791,-0.758469 -4.052704,1.355469 -5.6091,2.276581c0,0 -1.307281,0.379272 -1.494049,0c-0.186768,-0.37912 2.241211,-1.842804 2.241211,-1.951996c0,-0.10791 0.871582,-1.02951 -0.747162,-0.324585c-1.618652,0.705032 -3.73526,0.162857 -5.235535,0.65033c-1.494232,0.487335 -3.112976,2.005524 -5.229584,1.951996c-2.122925,-0.054565 -2.116608,2.275452 -5.982697,2.275452c-2.241119,0 -1.307465,0.759735 -2.241119,0.650391c-0.933838,-0.108124 1.120422,-0.974915 1.120422,-0.974915c0,0 -2.241028,0.649155 -2.62088,0.649155c-0.373352,0 -2.054443,0.054626 1.873993,-1.299423c0,0 -2.870087,0 -1.873993,-0.325775c1.002228,-0.325714 3.492828,-0.974884 3.36795,-1.300629c-0.12442,-0.325806 -2.676819,-0.270935 -1.867493,-0.650452c0.809326,-0.378967 5.229309,-1.78775 4.108795,-1.951797c-1.120605,-0.161545 -2.739166,-0.21637 -1.867676,-0.649216c0.871674,-0.434937 11.585724,-1.4646 13.086273,-2.602264c1.493958,-1.137726 5.353668,-4.445007 6.349915,-4.553329c0.995941,-0.108139 0,-0.921158 -0.74707,-0.650253c-0.74707,0.272308 -1.431885,-0.162689 -1.120758,-1.950821c0.311432,-1.789246 -3.206024,3.921585 -5.235565,1.950821c-1.058441,-1.029434 -0.249176,-1.787918 -1.494141,-1.625061c-1.245026,0.162964 -1.182861,-1.193558 -1.494232,-0.650391c-0.311005,0.541061 -2.925842,3.901917 -4.109039,3.577316c-1.188843,-0.325806 -0.311127,-0.543289 -1.126587,-0.651611c-0.809326,-0.108139 -1.369446,-0.324448 -1.494141,-0.974716c-0.124512,-0.651337 -0.871582,0.43277 -1.120514,-0.651337c-0.248932,-1.083038 -0.435791,-2.438507 -1.494141,-1.299652c-1.058075,1.137848 -1.431793,0.378143 -1.494049,0c-0.062347,-0.380341 -2.309692,0.216614 -2.247528,-0.97583c0.062256,-1.192627 -2.178955,0.379364 -1.867493,-0.976151c0.311096,-1.355301 -1.892761,-0.183777 -1.494324,-1.300705c0.871765,-2.437958 -2.988098,-0.216278 -2.614655,-1.30043c0.373627,-1.084122 -1.805328,-0.216476 -1.494232,-1.300705c0.311554,-1.084122 -2.079071,-0.707352 -1.873718,-1.62619c0.435699,-1.950912 -2.241119,-0.596741 -1.867676,-2.276733c0.373627,-1.67981 -1.699768,-0.010422 -1.494049,-1.300507c0.311279,-1.950882 -2.670868,-1.242325 -1.867859,-2.601151c1.245117,-2.113632 -1.282288,-1.205154 -0.74707,-2.276672c0.809326,-1.626175 -5.20459,0.180481 -3.741486,-2.601135c0.684906,-1.30159 -4.071533,-2.167282 -1.867676,-3.25267c3.735535,-1.842651 -5.733673,-0.92128 -1.120514,-3.902847c4.295471,-1.734512 4.563171,-1.897293 -0.74707,-1.626205c-2.122894,0.109283 -5.298019,-2.438385 -2.247437,-2.600128c3.056763,-0.163986 9.288574,-1.464569 2.247437,-1.952057c-7.041061,-0.487381 -7.290161,-2.709259 -4.488647,-2.601074c2.80159,0.108002 13.770905,0.108002 10.838837,-0.650452c-2.9263,-0.759521 -16.329681,-2.613785 -11.212296,-4.553101c2.427979,-0.921326 19.554214,3.978546 14.580154,0.650299c-0.809326,-0.542084 -8.722046,-2.492966 -11.592041,-5.203491c-2.863602,-2.709381 -2.303467,-3.088531 -0.747025,-2.601135c1.562576,0.487396 19.629044,7.642944 16.821396,5.20343c-0.498047,-0.434006 -10.838654,-4.716034 -12.332794,-8.455017c-1.494141,-3.73996 -0.062164,-2.763977 1.120697,-1.626328c1.18277,1.137894 18.184753,12.006699 15.327209,8.454956c-0.871307,-1.084106 -8.473022,-5.419846 -10.091675,-9.755508c-1.624786,-4.336838 -0.373352,-3.144348 0.74707,-1.950775c1.120789,1.192429 18.44632,17.436798 15.700928,11.706284c-0.622375,-1.300476 -6.107391,-5.366394 -6.729675,-9.106339c-0.62265,-3.7388 0.996185,-2.33017 1.867401,-0.974899c0.871582,1.355347 13.148438,18.211624 13.4599,15.284775c0,0 0.062073,0.053543 0.373535,0c0.311096,-0.054657 -0.24939,-1.571503 0.373444,-1.301575c0,0 0.248749,-1.192444 0.746979,-0.974945c0.498047,0.217682 0.996002,0.053406 1.120422,-1.300629c0.124512,-1.355316 3.803925,0.216385 4.862274,7.154449c0,0 0.74707,0.702621 0.74707,2.275391c0,0.813171 4.482422,4.769562 7.103149,4.553253c2.614899,-0.216354 6.35025,4.553284 7.476837,4.877747c1.120941,0.325638 3.610931,2.276688 7.47702,0.325638c3.85968,-1.950851 7.657379,-2.601196 4.48233,-2.926758c-3.174957,-0.325806 -2.552399,-1.408707 -1.120605,-1.626282c1.431976,-0.216446 7.663696,-0.325729 5.608887,-1.300644c-2.060394,-0.976105 -3.834412,-6.188858 -1.126465,-4.877655c1.126465,0.541931 5.104614,5.358032 4.488647,1.950714c-0.187134,-1.029602 -2.614746,-2.27536 -1.867676,-5.85379c0.74707,-3.577148 1.780334,-0.73056 1.867676,-0.324493c0.124512,0.595566 3.149963,7.997711 3.741486,4.22757c0.186584,-1.192688 -1.375763,-2.76416 -0.753387,-7.15451c0.622742,-4.390442 1.500458,0 1.500458,0c0,0 1.774292,4.494919 1.494324,6.829865c-0.12442,1.029541 1.618652,0.648987 1.493958,-1.301788c-0.124603,-1.950928 -1.058167,-6.231964 -0.373718,-6.178421c0.684998,0.054749 2.739441,2.902481 2.241394,5.202225c-0.186584,0.868073 2.683319,1.734619 -0.373718,3.577332c-3.050171,1.843796 -6.35614,5.529114 -6.35614,5.529114c0,0 0.740845,2.381378 -2.988007,3.577423c-2.365906,0.758331 -0.373718,2.275391 -0.373718,2.275391z" stroke="#000" fill="#fff"/>
  <text font-weight="bold" xml:space="preserve" text-anchor="start" font-family="'Courier New', Courier, monospace" font-size="24" id="svg_3" y="192.949997" x="211.033325" fill-opacity="null" stroke-opacity="null" stroke-width="0" stroke="#000" fill="#000000">HACK TEAM 5</text>
 </g>
</svg>